<?xml version="1.0" encoding="UTF-8"?>
<svg xmlns="http://www.w3.org/2000/svg" width="1920" height="1080" viewBox="0 0 1920 1080">
  <defs><linearGradient id="g" x1="0" y1="0" x2="1" y2="1"><stop offset="0%" stop-color="#0d1117"/><stop offset="100%" stop-color="#5e4b8b"/></linearGradient></defs>
  <rect width="1920" height="1080" fill="url(#g)"/>
  <rect x="0" y="100" width="140" height="140" rx="8" fill="#367bf0" opacity="0.15" transform="rotate(15 70 170)"/>
  <rect x="200" y="100" width="140" height="140" rx="8" fill="#367bf0" opacity="0.22999999999999998" transform="rotate(18 270 170)"/>
  <rect x="400" y="100" width="140" height="140" rx="8" fill="#367bf0" opacity="0.31" transform="rotate(21 470 170)"/>
  <rect x="600" y="100" width="140" height="140" rx="8" fill="#367bf0" opacity="0.39" transform="rotate(24 670 170)"/>
  <rect x="800" y="100" width="140" height="140" rx="8" fill="#367bf0" opacity="0.47" transform="rotate(27 870 170)"/>
  <rect x="1000" y="100" width="140" height="140" rx="8" fill="#367bf0" opacity="0.15" transform="rotate(30 1070 170)"/>
  <rect x="1200" y="100" width="140" height="140" rx="8" fill="#367bf0" opacity="0.22999999999999998" transform="rotate(33 1270 170)"/>
  <rect x="1400" y="100" width="140" height="140" rx="8" fill="#367bf0" opacity="0.31" transform="rotate(36 1470 170)"/>
  <rect x="1600" y="100" width="140" height="140" rx="8" fill="#367bf0" opacity="0.39" transform="rotate(39 1670 170)"/>
  <rect x="1800" y="100" width="140" height="140" rx="8" fill="#367bf0" opacity="0.47" transform="rotate(42 1870 170)"/>
  <rect x="100" y="220" width="140" height="140" rx="8" fill="#367bf0" opacity="0.22999999999999998" transform="rotate(15 170 290)"/>
  <rect x="300" y="220" width="140" height="140" rx="8" fill="#367bf0" opacity="0.31" transform="rotate(18 370 290)"/>
  <rect x="500" y="220" width="140" height="140" rx="8" fill="#367bf0" opacity="0.39" transform="rotate(21 570 290)"/>
  <rect x="700" y="220" width="140" height="140" rx="8" fill="#367bf0" opacity="0.47" transform="rotate(24 770 290)"/>
  <rect x="900" y="220" width="140" height="140" rx="8" fill="#367bf0" opacity="0.15" transform="rotate(27 970 290)"/>
  <rect x="1100" y="220" width="140" height="140" rx="8" fill="#367bf0" opacity="0.22999999999999998" transform="rotate(30 1170 290)"/>
  <rect x="1300" y="220" width="140" height="140" rx="8" fill="#367bf0" opacity="0.31" transform="rotate(33 1370 290)"/>
  <rect x="1500" y="220" width="140" height="140" rx="8" fill="#367bf0" opacity="0.39" transform="rotate(36 1570 290)"/>
  <rect x="1700" y="220" width="140" height="140" rx="8" fill="#367bf0" opacity="0.47" transform="rotate(39 1770 290)"/>
  <rect x="1900" y="220" width="140" height="140" rx="8" fill="#367bf0" opacity="0.15" transform="rotate(42 1970 290)"/>
  <rect x="0" y="340" width="140" height="140" rx="8" fill="#367bf0" opacity="0.31" transform="rotate(15 70 410)"/>
  <rect x="200" y="340" width="140" height="140" rx="8" fill="#367bf0" opacity="0.39" transform="rotate(18 270 410)"/>
  <rect x="400" y="340" width="140" height="140" rx="8" fill="#367bf0" opacity="0.47" transform="rotate(21 470 410)"/>
  <rect x="600" y="340" width="140" height="140" rx="8" fill="#367bf0" opacity="0.15" transform="rotate(24 670 410)"/>
  <rect x="800" y="340" width="140" height="140" rx="8" fill="#367bf0" opacity="0.22999999999999998" transform="rotate(27 870 410)"/>
  <rect x="1000" y="340" width="140" height="140" rx="8" fill="#367bf0" opacity="0.31" transform="rotate(30 1070 410)"/>
  <rect x="1200" y="340" width="140" height="140" rx="8" fill="#367bf0" opacity="0.39" transform="rotate(33 1270 410)"/>
  <rect x="1400" y="340" width="140" height="140" rx="8" fill="#367bf0" opacity="0.47" transform="rotate(36 1470 410)"/>
  <rect x="1600" y="340" width="140" height="140" rx="8" fill="#367bf0" opacity="0.15" transform="rotate(39 1670 410)"/>
  <rect x="1800" y="340" width="140" height="140" rx="8" fill="#367bf0" opacity="0.22999999999999998" transform="rotate(42 1870 410)"/>
  <rect x="100" y="460" width="140" height="140" rx="8" fill="#367bf0" opacity="0.39" transform="rotate(15 170 530)"/>
  <rect x="300" y="460" width="140" height="140" rx="8" fill="#367bf0" opacity="0.47" transform="rotate(18 370 530)"/>
  <rect x="500" y="460" width="140" height="140" rx="8" fill="#367bf0" opacity="0.15" transform="rotate(21 570 530)"/>
  <rect x="700" y="460" width="140" height="140" rx="8" fill="#367bf0" opacity="0.22999999999999998" transform="rotate(24 770 530)"/>
  <rect x="900" y="460" width="140" height="140" rx="8" fill="#367bf0" opacity="0.31" transform="rotate(27 970 530)"/>
  <rect x="1100" y="460" width="140" height="140" rx="8" fill="#367bf0" opacity="0.39" transform="rotate(30 1170 530)"/>
  <rect x="1300" y="460" width="140" height="140" rx="8" fill="#367bf0" opacity="0.47" transform="rotate(33 1370 530)"/>
  <rect x="1500" y="460" width="140" height="140" rx="8" fill="#367bf0" opacity="0.15" transform="rotate(36 1570 530)"/>
  <rect x="1700" y="460" width="140" height="140" rx="8" fill="#367bf0" opacity="0.22999999999999998" transform="rotate(39 1770 530)"/>
  <rect x="1900" y="460" width="140" height="140" rx="8" fill="#367bf0" opacity="0.31" transform="rotate(42 1970 530)"/>
  <rect x="0" y="580" width="140" height="140" rx="8" fill="#367bf0" opacity="0.47" transform="rotate(15 70 650)"/>
  <rect x="200" y="580" width="140" height="140" rx="8" fill="#367bf0" opacity="0.15" transform="rotate(18 270 650)"/>
  <rect x="400" y="580" width="140" height="140" rx="8" fill="#367bf0" opacity="0.22999999999999998" transform="rotate(21 470 650)"/>
  <rect x="600" y="580" width="140" height="140" rx="8" fill="#367bf0" opacity="0.31" transform="rotate(24 670 650)"/>
  <rect x="800" y="580" width="140" height="140" rx="8" fill="#367bf0" opacity="0.39" transform="rotate(27 870 650)"/>
  <rect x="1000" y="580" width="140" height="140" rx="8" fill="#367bf0" opacity="0.47" transform="rotate(30 1070 650)"/>
  <rect x="1200" y="580" width="140" height="140" rx="8" fill="#367bf0" opacity="0.15" transform="rotate(33 1270 650)"/>
  <rect x="1400" y="580" width="140" height="140" rx="8" fill="#367bf0" opacity="0.22999999999999998" transform="rotate(36 1470 650)"/>
  <rect x="1600" y="580" width="140" height="140" rx="8" fill="#367bf0" opacity="0.31" transform="rotate(39 1670 650)"/>
  <rect x="1800" y="580" width="140" height="140" rx="8" fill="#367bf0" opacity="0.39" transform="rotate(42 1870 650)"/>
  <rect x="100" y="700" width="140" height="140" rx="8" fill="#367bf0" opacity="0.15" transform="rotate(15 170 770)"/>
  <rect x="300" y="700" width="140" height="140" rx="8" fill="#367bf0" opacity="0.22999999999999998" transform="rotate(18 370 770)"/>
  <rect x="500" y="700" width="140" height="140" rx="8" fill="#367bf0" opacity="0.31" transform="rotate(21 570 770)"/>
  <rect x="700" y="700" width="140" height="140" rx="8" fill="#367bf0" opacity="0.39" transform="rotate(24 770 770)"/>
  <rect x="900" y="700" width="140" height="140" rx="8" fill="#367bf0" opacity="0.47" transform="rotate(27 970 770)"/>
  <rect x="1100" y="700" width="140" height="140" rx="8" fill="#367bf0" opacity="0.15" transform="rotate(30 1170 770)"/>
  <rect x="1300" y="700" width="140" height="140" rx="8" fill="#367bf0" opacity="0.22999999999999998" transform="rotate(33 1370 770)"/>
  <rect x="1500" y="700" width="140" height="140" rx="8" fill="#367bf0" opacity="0.31" transform="rotate(36 1570 770)"/>
  <rect x="1700" y="700" width="140" height="140" rx="8" fill="#367bf0" opacity="0.39" transform="rotate(39 1770 770)"/>
  <rect x="1900" y="700" width="140" height="140" rx="8" fill="#367bf0" opacity="0.47" transform="rotate(42 1970 770)"/>
  <text x="960" y="900" text-anchor="middle" font-size="64" font-weight="bold" fill="#367bf0" opacity="0.5">KALI</text>
</svg>